<svg xmlns="http://www.w3.org/2000/svg" width="64" height="64" viewBox="0 0 64 64" version="1.1"><path d="M 35.500 12.850 C 29.520 14.794, 27 18.759, 27 26.223 L 27 32 23 32 L 19 32 19 36.500 L 19 41 23 41 L 27 41 27 52.500 L 27 64 32 64 L 37 64 37 52.500 L 37 41 41 41 C 44.477 41, 45.002 40.706, 45.014 38.750 C 45.021 37.513, 45.299 35.487, 45.630 34.250 C 46.192 32.155, 45.916 32, 41.617 32 L 37 32 37 28.071 C 37 23.378, 39.042 21, 43.071 21 C 45.806 21, 46 20.743, 46 17.125 C 46 13.585, 45.730 13.196, 42.875 12.625 C 39.306 11.911, 38.291 11.942, 35.500 12.850" stroke="none" fill="#f9fafc" fill-rule="evenodd"/><path d="M 23 0.877 C 14.399 3.702, 7.083 9.922, 2.859 18 C 0.868 21.807, 0.506 23.964, 0.508 32 C 0.509 40.362, 0.828 42.099, 3.168 46.500 C 7.517 54.678, 15.867 61.362, 24.250 63.377 L 27 64.038 27 52.519 L 27 41 23 41 L 19 41 19 36.500 L 19 32 23 32 L 27 32 27 26.223 C 27 16.041, 33.216 10.693, 42.819 12.614 C 45.737 13.197, 46 13.570, 46 17.125 C 46 20.743, 45.806 21, 43.071 21 C 39.042 21, 37 23.378, 37 28.071 L 37 32 41.617 32 C 45.916 32, 46.192 32.155, 45.630 34.250 C 45.299 35.487, 45.021 37.513, 45.014 38.750 C 45.002 40.706, 44.477 41, 41 41 L 37 41 37 52.519 L 37 64.038 39.750 63.376 C 48.681 61.226, 57.931 53.360, 61.360 45 C 62.375 42.525, 63.609 39.719, 64.103 38.764 C 65.360 36.331, 65.269 23.716, 64 24.500 C 63.450 24.840, 63 24.399, 63 23.519 C 63 20.801, 58.968 13.689, 55.144 9.664 C 49.251 3.459, 42.856 0.710, 33.500 0.357 C 29.100 0.192, 24.375 0.426, 23 0.877 M 0.336 32 C 0.336 36.125, 0.513 37.813, 0.728 35.750 C 0.944 33.688, 0.944 30.313, 0.728 28.250 C 0.513 26.188, 0.336 27.875, 0.336 32" stroke="none" fill="#1c74f4" fill-rule="evenodd"/></svg>