<svg xmlns="http://www.w3.org/2000/svg" width="64" height="64" viewBox="0 0 64 64" version="1.1"><path d="" stroke="none" fill="#080404" fill-rule="evenodd"/><path d="M 23 0.877 C 14.399 3.702, 7.083 9.922, 2.859 18 C 0.868 21.807, 0.506 23.964, 0.508 32 C 0.509 40.362, 0.828 42.099, 3.168 46.500 C 6.355 52.492, 11.868 57.934, 18 61.141 C 21.807 63.132, 23.964 63.494, 32 63.492 C 40.348 63.491, 42.111 63.168, 46.540 60.835 C 52.742 57.567, 58.907 50.980, 61.360 45 C 62.375 42.525, 63.609 39.719, 64.103 38.764 C 65.360 36.331, 65.269 23.716, 64 24.500 C 63.450 24.840, 63 24.399, 63 23.519 C 63 20.801, 58.968 13.689, 55.144 9.664 C 49.251 3.459, 42.856 0.710, 33.500 0.357 C 29.100 0.192, 24.375 0.426, 23 0.877 M 21.557 12.989 C 15.816 14.094, 13.318 17.522, 12.468 25.458 C 12.082 29.056, 12.089 35.004, 12.482 38.675 C 13.469 47.894, 16.106 50.531, 25.325 51.518 C 28.996 51.911, 35.004 51.911, 38.675 51.518 C 47.894 50.531, 50.531 47.894, 51.518 38.675 C 52.554 29, 51.326 19.491, 48.637 16.364 C 45.284 12.466, 32.530 10.877, 21.557 12.989 M 20.020 16.239 C 15.774 18.465, 14.913 21.513, 15.219 33.225 C 15.471 42.848, 15.734 44.183, 17.778 46.225 C 19.893 48.338, 20.908 48.500, 32 48.500 C 43.097 48.500, 44.106 48.338, 46.222 46.222 C 48.338 44.106, 48.500 43.097, 48.500 32 C 48.500 20.908, 48.338 19.893, 46.225 17.778 C 44.183 15.734, 42.848 15.471, 33.225 15.219 C 25.871 15.027, 21.720 15.347, 20.020 16.239 M 41.658 19.675 C 41.296 20.037, 41 20.933, 41 21.667 C 41 23.156, 43.578 23.492, 44.430 22.113 C 45.111 21.012, 42.562 18.771, 41.658 19.675 M 25.400 25.400 C 20.787 30.013, 20.787 33.987, 25.400 38.600 C 30.013 43.213, 33.987 43.213, 38.600 38.600 C 41.050 36.150, 42 34.306, 42 32 C 42 29.694, 41.050 27.850, 38.600 25.400 C 33.987 20.787, 30.013 20.787, 25.400 25.400 M 0.336 32 C 0.336 36.125, 0.513 37.813, 0.728 35.750 C 0.944 33.688, 0.944 30.313, 0.728 28.250 C 0.513 26.188, 0.336 27.875, 0.336 32 M 27.174 27.314 C 24.354 30.317, 24.409 34.096, 27.314 36.826 C 30.317 39.646, 34.096 39.591, 36.826 36.686 C 39.646 33.683, 39.591 29.904, 36.686 27.174 C 33.683 24.354, 29.904 24.409, 27.174 27.314" stroke="none" fill="#040404" fill-rule="evenodd"/></svg>