<svg xmlns="http://www.w3.org/2000/svg" width="64" height="64" viewBox="0 0 64 64" version="1.1"><path d="M 34.338 18.169 C 33.148 19.451, 32.023 21.625, 31.838 23 C 31.553 25.107, 31.042 25.451, 28.585 25.186 C 25.119 24.813, 18.893 21.781, 17.061 19.573 C 16.343 18.708, 15.360 18, 14.878 18 C 13.533 18, 13.835 24.425, 15.250 25.925 C 16.250 26.985, 16.250 27.342, 15.250 27.708 C 13.221 28.452, 13.811 30.921, 16.646 33.548 C 18.101 34.896, 18.776 36, 18.146 36 C 15.984 36, 17.001 38.030, 20.110 39.921 C 22.948 41.646, 23.057 41.896, 21.360 42.768 C 20.337 43.293, 18.150 44.068, 16.500 44.488 L 13.500 45.253 16.500 46.582 C 20.422 48.318, 29.217 48.355, 33.282 46.652 C 40.892 43.462, 46.316 36.341, 47.606 27.842 C 47.969 25.454, 48.994 22.636, 49.883 21.580 C 51.401 19.778, 51.378 19.705, 49.500 20.390 C 47.895 20.974, 47.747 20.870, 48.750 19.859 C 50.643 17.953, 50.275 17.297, 47.250 17.186 C 45.737 17.130, 42.700 16.804, 40.500 16.461 C 37.133 15.937, 36.158 16.207, 34.338 18.169" stroke="none" fill="#f5f9fc" fill-rule="evenodd"/><path d="M 23 0.877 C 14.399 3.702, 7.083 9.922, 2.859 18 C 0.868 21.807, 0.506 23.964, 0.508 32 C 0.509 40.362, 0.828 42.099, 3.168 46.500 C 6.355 52.492, 11.868 57.934, 18 61.141 C 21.807 63.132, 23.964 63.494, 32 63.492 C 40.348 63.491, 42.111 63.168, 46.540 60.835 C 52.742 57.567, 58.907 50.980, 61.360 45 C 62.375 42.525, 63.609 39.719, 64.103 38.764 C 65.360 36.331, 65.269 23.716, 64 24.500 C 63.450 24.840, 63 24.399, 63 23.519 C 63 20.801, 58.968 13.689, 55.144 9.664 C 49.251 3.459, 42.856 0.710, 33.500 0.357 C 29.100 0.192, 24.375 0.426, 23 0.877 M 34.338 18.169 C 33.148 19.451, 32.023 21.625, 31.838 23 C 31.553 25.107, 31.042 25.451, 28.585 25.186 C 25.119 24.813, 18.893 21.781, 17.061 19.573 C 16.343 18.708, 15.360 18, 14.878 18 C 13.533 18, 13.835 24.425, 15.250 25.925 C 16.250 26.985, 16.250 27.342, 15.250 27.708 C 13.221 28.452, 13.811 30.921, 16.646 33.548 C 18.101 34.896, 18.776 36, 18.146 36 C 15.984 36, 17.001 38.030, 20.110 39.921 C 22.948 41.646, 23.057 41.896, 21.360 42.768 C 20.337 43.293, 18.150 44.068, 16.500 44.488 L 13.500 45.253 16.500 46.582 C 20.422 48.318, 29.217 48.355, 33.282 46.652 C 40.892 43.462, 46.316 36.341, 47.606 27.842 C 47.969 25.454, 48.994 22.636, 49.883 21.580 C 51.401 19.778, 51.378 19.705, 49.500 20.390 C 47.895 20.974, 47.747 20.870, 48.750 19.859 C 50.643 17.953, 50.275 17.297, 47.250 17.186 C 45.737 17.130, 42.700 16.804, 40.500 16.461 C 37.133 15.937, 36.158 16.207, 34.338 18.169 M 0.336 32 C 0.336 36.125, 0.513 37.813, 0.728 35.750 C 0.944 33.688, 0.944 30.313, 0.728 28.250 C 0.513 26.188, 0.336 27.875, 0.336 32" stroke="none" fill="#1ca4f4" fill-rule="evenodd"/></svg>